<mxfile host="app.diagrams.net" modified="2023-07-16T20:21:09.001Z" agent="Mozilla/5.0 (Macintosh; Intel Mac OS X 10_15_7) AppleWebKit/605.1.15 (KHTML, like Gecko) Version/16.4 Safari/605.1.15" etag="fOF7_bnPRD8rPq0lQDTH" version="21.6.1" type="device">
  <diagram name="Page-1" id="ZFf3w0PDrJ6b2tHf_HhN">
    <mxGraphModel dx="1773" dy="2116" grid="1" gridSize="10" guides="1" tooltips="1" connect="1" arrows="1" fold="1" page="1" pageScale="1" pageWidth="827" pageHeight="1169" math="0" shadow="0">
      <root>
        <mxCell id="0" />
        <mxCell id="1" parent="0" />
        <mxCell id="gvlfQ0hl_y0Rqylf3Gjj-27" value="&lt;p style=&quot;margin: 4px 0px 0px; text-align: center; font-size: 14px;&quot;&gt;&lt;font style=&quot;font-size: 14px;&quot;&gt;&lt;i&gt;&amp;lt;&amp;lt;Abstract Class&amp;gt;&amp;gt;&lt;/i&gt;&lt;br&gt;&lt;b&gt;FaasService&lt;/b&gt;&lt;/font&gt;&lt;/p&gt;&lt;hr style=&quot;font-size: 14px;&quot; size=&quot;1&quot;&gt;&lt;p style=&quot;margin: 0px 0px 0px 4px; font-size: 14px;&quot;&gt;&lt;font style=&quot;font-size: 14px;&quot;&gt;- faasServiceConfiguration:&amp;nbsp;FaasPlatformConfiguration&lt;/font&gt;&lt;/p&gt;&lt;hr style=&quot;font-size: 14px;&quot; size=&quot;1&quot;&gt;&lt;p style=&quot;margin: 0px 0px 0px 4px; font-size: 14px;&quot;&gt;&lt;font style=&quot;font-size: 14px;&quot;&gt;- createPlatformId(functionId, namespace, platformId): string&amp;nbsp;&lt;/font&gt;&lt;/p&gt;&lt;p style=&quot;margin: 0px 0px 0px 4px; font-size: 14px;&quot;&gt;&lt;font style=&quot;font-size: 14px;&quot;&gt;- canDeployFunction(gFaasFunctionYaml)L Promise&amp;lt;PlatformResponse&amp;lt;boolean&amp;gt;&amp;gt;&lt;/font&gt;&lt;/p&gt;&lt;p style=&quot;margin: 0px 0px 0px 4px; font-size: 14px;&quot;&gt;&lt;font style=&quot;font-size: 14px;&quot;&gt;+ health(): Promise&amp;lt;PlatformResponse&amp;lt;T&amp;gt;&amp;gt;&lt;br&gt;+ getFunction(): Promise&amp;lt;PlatformResponse&amp;lt;gFaasFunction[]&amp;gt;&amp;gt;&lt;/font&gt;&lt;/p&gt;&lt;p style=&quot;margin: 0px 0px 0px 4px; font-size: 14px;&quot;&gt;&lt;font style=&quot;font-size: 14px;&quot;&gt;+ getFunction(functionName, namespace): Promise&amp;lt;PlatformResponse&amp;lt;gFaasFunction&amp;gt;&amp;gt;&lt;/font&gt;&lt;/p&gt;&lt;p style=&quot;margin: 0px 0px 0px 4px; font-size: 14px;&quot;&gt;&lt;font style=&quot;font-size: 14px;&quot;&gt;+ translateFunctionObject(fun): Promise&amp;lt;gFaasFunction&amp;gt;&lt;/font&gt;&lt;/p&gt;&lt;p style=&quot;margin: 0px 0px 0px 4px; font-size: 14px;&quot;&gt;&lt;font style=&quot;font-size: 14px;&quot;&gt;+ deleteFunction(functionName, namespace): Promise&amp;lt;PlatformResponse&amp;lt;any&amp;gt;&amp;gt;&lt;/font&gt;&lt;/p&gt;&lt;p style=&quot;margin: 0px 0px 0px 4px; font-size: 14px;&quot;&gt;&lt;font style=&quot;font-size: 14px;&quot;&gt;+ createFunction(gfaasFunctionYaml, doLogStatus): Promise&amp;lt;PlatformResponse&amp;lt;any&amp;gt;&amp;gt;&lt;/font&gt;&lt;/p&gt;&lt;p style=&quot;margin: 0px 0px 0px 4px; font-size: 14px;&quot;&gt;&lt;font style=&quot;font-size: 14px;&quot;&gt;+ getNamespaces(): Promise&amp;lt;PlatformResponse&amp;lt;Namespaces&amp;gt;&amp;gt;&lt;/font&gt;&lt;/p&gt;&lt;p style=&quot;margin: 0px 0px 0px 4px; font-size: 14px;&quot;&gt;&lt;font style=&quot;font-size: 14px;&quot;&gt;+ invoke(gFunction, payload, ID): Promise&amp;lt;PlatformResponse&amp;lt;any&amp;gt;&amp;gt;&lt;/font&gt;&lt;/p&gt;" style="verticalAlign=top;align=left;overflow=fill;fontSize=12;fontFamily=Helvetica;html=1;whiteSpace=wrap;" parent="1" vertex="1">
          <mxGeometry x="150" y="190" width="570" height="250" as="geometry" />
        </mxCell>
        <mxCell id="gvlfQ0hl_y0Rqylf3Gjj-32" value="&lt;font style=&quot;font-size: 14px;&quot;&gt;OpenFaasService&lt;/font&gt;" style="html=1;whiteSpace=wrap;" parent="1" vertex="1">
          <mxGeometry x="120" y="500" width="150" height="60" as="geometry" />
        </mxCell>
        <mxCell id="gvlfQ0hl_y0Rqylf3Gjj-33" value="&lt;font style=&quot;font-size: 14px;&quot;&gt;FissionService&lt;/font&gt;" style="html=1;whiteSpace=wrap;" parent="1" vertex="1">
          <mxGeometry x="600" y="500" width="150" height="60" as="geometry" />
        </mxCell>
        <mxCell id="gvlfQ0hl_y0Rqylf3Gjj-34" value="&lt;font style=&quot;font-size: 14px;&quot;&gt;NuclioService&lt;/font&gt;" style="html=1;whiteSpace=wrap;" parent="1" vertex="1">
          <mxGeometry x="280" y="500" width="150" height="60" as="geometry" />
        </mxCell>
        <mxCell id="gvlfQ0hl_y0Rqylf3Gjj-35" value="&lt;font style=&quot;font-size: 14px;&quot;&gt;KnativeService&lt;/font&gt;" style="html=1;whiteSpace=wrap;" parent="1" vertex="1">
          <mxGeometry x="440" y="500" width="150" height="60" as="geometry" />
        </mxCell>
        <mxCell id="gvlfQ0hl_y0Rqylf3Gjj-36" value="" style="endArrow=block;html=1;rounded=0;entryX=0.5;entryY=1;entryDx=0;entryDy=0;exitX=0.5;exitY=0;exitDx=0;exitDy=0;endFill=0;endSize=17;strokeWidth=2;" parent="1" source="gvlfQ0hl_y0Rqylf3Gjj-32" target="gvlfQ0hl_y0Rqylf3Gjj-27" edge="1">
          <mxGeometry width="50" height="50" relative="1" as="geometry">
            <mxPoint x="400" y="460" as="sourcePoint" />
            <mxPoint x="450" y="410" as="targetPoint" />
            <Array as="points">
              <mxPoint x="195" y="470" />
              <mxPoint x="435" y="470" />
            </Array>
          </mxGeometry>
        </mxCell>
        <mxCell id="gvlfQ0hl_y0Rqylf3Gjj-37" value="" style="endArrow=block;html=1;rounded=0;entryX=0.5;entryY=1;entryDx=0;entryDy=0;exitX=0.5;exitY=0;exitDx=0;exitDy=0;endFill=0;endSize=17;strokeWidth=2;" parent="1" source="gvlfQ0hl_y0Rqylf3Gjj-33" target="gvlfQ0hl_y0Rqylf3Gjj-27" edge="1">
          <mxGeometry width="50" height="50" relative="1" as="geometry">
            <mxPoint x="440" y="660" as="sourcePoint" />
            <mxPoint x="680" y="600" as="targetPoint" />
            <Array as="points">
              <mxPoint x="675" y="470" />
              <mxPoint x="435" y="470" />
            </Array>
          </mxGeometry>
        </mxCell>
        <mxCell id="gvlfQ0hl_y0Rqylf3Gjj-38" value="" style="endArrow=none;html=1;rounded=0;strokeWidth=2;entryX=0.5;entryY=0;entryDx=0;entryDy=0;" parent="1" target="gvlfQ0hl_y0Rqylf3Gjj-35" edge="1">
          <mxGeometry width="50" height="50" relative="1" as="geometry">
            <mxPoint x="515" y="470" as="sourcePoint" />
            <mxPoint x="500" y="560" as="targetPoint" />
          </mxGeometry>
        </mxCell>
        <mxCell id="gvlfQ0hl_y0Rqylf3Gjj-39" value="" style="endArrow=none;html=1;rounded=0;strokeWidth=2;entryX=0.5;entryY=0;entryDx=0;entryDy=0;" parent="1" edge="1">
          <mxGeometry width="50" height="50" relative="1" as="geometry">
            <mxPoint x="354.9" y="470" as="sourcePoint" />
            <mxPoint x="354.9" y="500" as="targetPoint" />
          </mxGeometry>
        </mxCell>
        <mxCell id="gvlfQ0hl_y0Rqylf3Gjj-40" value="&lt;p style=&quot;margin: 4px 0px 0px; text-align: center; font-size: 14px;&quot;&gt;&lt;font style=&quot;font-size: 14px;&quot;&gt;&lt;b&gt;HttpService&lt;/b&gt;&lt;/font&gt;&lt;/p&gt;&lt;hr style=&quot;font-size: 14px;&quot; size=&quot;1&quot;&gt;&lt;p style=&quot;margin: 0px 0px 0px 4px; font-size: 14px;&quot;&gt;&lt;font style=&quot;font-size: 14px;&quot;&gt;- timeout: number&lt;/font&gt;&lt;/p&gt;&lt;p style=&quot;margin: 0px 0px 0px 4px; font-size: 14px;&quot;&gt;&lt;font style=&quot;font-size: 14px;&quot;&gt;-&amp;nbsp;&lt;/font&gt;rejectUnauthorized: boolean&lt;/p&gt;&lt;hr style=&quot;font-size: 14px;&quot; size=&quot;1&quot;&gt;&lt;p style=&quot;margin: 0px 0px 0px 4px; font-size: 14px;&quot;&gt;- handleError(error): PlatfromResponse&amp;lt;any&amp;gt;&lt;/p&gt;&lt;p style=&quot;margin: 0px 0px 0px 4px; font-size: 14px;&quot;&gt;+ get(path, headers): Promise&amp;lt;PlatformResponse&amp;lt;any&amp;gt;&amp;gt;&lt;/p&gt;&lt;p style=&quot;margin: 0px 0px 0px 4px; font-size: 14px;&quot;&gt;+ delete(path, body): Promise&amp;lt;PlatformResponse&amp;lt;any&amp;gt;&amp;gt;&lt;br&gt;&lt;/p&gt;&lt;p style=&quot;margin: 0px 0px 0px 4px; font-size: 14px;&quot;&gt;+ post(path, body): Promise&amp;lt;PlatformResponse&amp;lt;any&amp;gt;&amp;gt;&lt;/p&gt;&lt;p style=&quot;margin: 0px 0px 0px 4px; font-size: 14px;&quot;&gt;+ patch(path, body): Promise&amp;lt;PlatformResponse&amp;lt;any&amp;gt;&amp;gt;&lt;/p&gt;&lt;span style=&quot;font-size: 14px;&quot;&gt;&amp;nbsp;&lt;br&gt;&lt;/span&gt;" style="verticalAlign=top;align=left;overflow=fill;fontSize=12;fontFamily=Helvetica;html=1;whiteSpace=wrap;" parent="1" vertex="1">
          <mxGeometry x="150" y="-20" width="370" height="180" as="geometry" />
        </mxCell>
        <mxCell id="gvlfQ0hl_y0Rqylf3Gjj-42" value="" style="endArrow=block;html=1;rounded=0;entryX=1;entryY=0.5;entryDx=0;entryDy=0;endFill=0;endSize=17;strokeWidth=2;exitX=0.702;exitY=0;exitDx=0;exitDy=0;exitPerimeter=0;" parent="1" source="gvlfQ0hl_y0Rqylf3Gjj-27" target="gvlfQ0hl_y0Rqylf3Gjj-40" edge="1">
          <mxGeometry width="50" height="50" relative="1" as="geometry">
            <mxPoint x="550" y="180" as="sourcePoint" />
            <mxPoint x="690" y="180" as="targetPoint" />
            <Array as="points">
              <mxPoint x="550" y="70" />
            </Array>
          </mxGeometry>
        </mxCell>
        <mxCell id="gvlfQ0hl_y0Rqylf3Gjj-43" value="&lt;p style=&quot;margin: 4px 0px 0px; text-align: center; font-size: 14px;&quot;&gt;&lt;font style=&quot;font-size: 14px;&quot;&gt;&lt;b&gt;PlatfromResponse&lt;/b&gt;&lt;/font&gt;&lt;/p&gt;&lt;hr style=&quot;font-size: 14px;&quot; size=&quot;1&quot;&gt;&lt;p style=&quot;margin: 0px 0px 0px 4px; font-size: 14px;&quot;&gt;&lt;font style=&quot;font-size: 14px;&quot;&gt;+ successful: boolean&lt;/font&gt;&lt;/p&gt;&lt;p style=&quot;margin: 0px 0px 0px 4px; font-size: 14px;&quot;&gt;+ response?: T&lt;/p&gt;&lt;p style=&quot;margin: 0px 0px 0px 4px; font-size: 14px;&quot;&gt;+ errorMessage?: string&lt;/p&gt;&lt;span style=&quot;font-size: 14px;&quot;&gt;&amp;nbsp;&lt;br&gt;&lt;/span&gt;" style="verticalAlign=top;align=left;overflow=fill;fontSize=12;fontFamily=Helvetica;html=1;whiteSpace=wrap;" parent="1" vertex="1">
          <mxGeometry x="560" y="-20" width="160" height="90" as="geometry" />
        </mxCell>
      </root>
    </mxGraphModel>
  </diagram>
</mxfile>
